<svg width="15" height="13" viewBox="0 0 15 13" fill="none" xmlns="http://www.w3.org/2000/svg">
<path d="M14.4201 8.96719H5.11543L5.58262 8.01562L13.3451 8.00156C13.6076 8.00156 13.8326 7.81406 13.8795 7.55469L14.9545 1.5375C14.9826 1.37969 14.9404 1.21719 14.8373 1.09375C14.7863 1.033 14.7228 0.984065 14.651 0.950339C14.5792 0.916613 14.501 0.898903 14.4217 0.898438L4.54668 0.865625L4.4623 0.46875C4.40918 0.215625 4.18105 0.03125 3.92168 0.03125H1.50762C1.36133 0.03125 1.22104 0.0893608 1.1176 0.192799C1.01417 0.296237 0.956055 0.436529 0.956055 0.582813C0.956055 0.729096 1.01417 0.869388 1.1176 0.972826C1.22104 1.07626 1.36133 1.13438 1.50762 1.13438H3.4748L3.84355 2.8875L4.75137 7.28281L3.58262 9.19063C3.52192 9.27254 3.48536 9.36981 3.47708 9.47143C3.4688 9.57305 3.48912 9.67496 3.53574 9.76562C3.62949 9.95156 3.81855 10.0688 4.02793 10.0688H5.00918C4.79999 10.3466 4.687 10.685 4.6873 11.0328C4.6873 11.9172 5.40605 12.6359 6.29043 12.6359C7.1748 12.6359 7.89355 11.9172 7.89355 11.0328C7.89355 10.6844 7.77793 10.3453 7.57168 10.0688H10.0889C9.87968 10.3466 9.76669 10.685 9.76699 11.0328C9.76699 11.9172 10.4857 12.6359 11.3701 12.6359C12.2545 12.6359 12.9732 11.9172 12.9732 11.0328C12.9732 10.6844 12.8576 10.3453 12.6514 10.0688H14.4217C14.7248 10.0688 14.9732 9.82187 14.9732 9.51719C14.9723 9.37106 14.9137 9.23122 14.81 9.12818C14.7064 9.02514 14.5663 8.96727 14.4201 8.96719V8.96719ZM4.77637 1.95312L13.7732 1.98281L12.892 6.91719L5.8248 6.92969L4.77637 1.95312ZM6.29043 11.5266C6.01855 11.5266 5.79668 11.3047 5.79668 11.0328C5.79668 10.7609 6.01855 10.5391 6.29043 10.5391C6.5623 10.5391 6.78418 10.7609 6.78418 11.0328C6.78418 11.1638 6.73216 11.2894 6.63956 11.3819C6.54697 11.4745 6.42138 11.5266 6.29043 11.5266V11.5266ZM11.3701 11.5266C11.0982 11.5266 10.8764 11.3047 10.8764 11.0328C10.8764 10.7609 11.0982 10.5391 11.3701 10.5391C11.642 10.5391 11.8639 10.7609 11.8639 11.0328C11.8639 11.1638 11.8118 11.2894 11.7193 11.3819C11.6267 11.4745 11.5011 11.5266 11.3701 11.5266V11.5266Z" fill="#8C8C8C"/>
</svg>
